<svg version="1.1" xmlns="http://www.w3.org/2000/svg" xmlns:xlink="http://www.w3.org/1999/xlink" x="0px"
	 y="0px" viewBox="0 0 122.3 108.87" style="enable-background:new 0 0 122.3 108.87;" xml:space="preserve">
	<style>
    path, polygon {
      fill: black;
    }
    @media (prefers-color-scheme: dark) {
      path, polygon {
      	fill: white;
      }
    }
  </style>
<g>
	<path d="M107.25,12.28c-0.07,0.05-0.18-0.02-0.24,0.08C107.11,12.39,107.17,12.31,107.25,12.28
		C107.25,12.28,107.25,12.28,107.25,12.28z"/>
	<path d="M106.08,33.12c-0.08,0.03-0.15,0.1-0.25,0.05c0.14,0.2,0.29,0.32,0.52,0.11C106.29,33.16,106.23,33.06,106.08,33.12z"/>
	<g>
		<path d="M69.54,33.36C69.54,33.36,69.55,33.36,69.54,33.36c0.01,0,0.01-0.01,0.02-0.01L69.54,33.36z"/>
		<path d="M104.95,33.53C104.95,33.53,104.95,33.53,104.95,33.53c-0.01,0.01-0.01,0.01-0.01,0.02L104.95,33.53z"/>
		<polygon points="69.27,33.35 69.26,33.36 69.27,33.36 		"/>
		<path d="M73.3,31.96c0.01,0,0.01-0.01,0.02-0.01c-0.01,0-0.02,0-0.03,0L73.3,31.96z"/>
		<path d="M122.08,22.99c-0.43-0.49-0.57-1.07-0.53-1.68c0.02-0.37,0.04-0.72,0.04-1.09c0-0.51-0.11-0.98-0.24-1.45
			c-0.13-0.48-0.21-0.96-0.16-1.47c0.03-0.35,0.05-0.71-0.01-1.07c-0.12-0.71-0.06-1.42,0.05-2.13c0.02-0.11,0.05-0.2,0.03-0.32
			c-0.07-0.48-0.07-0.96-0.07-1.44c0-0.56,0.14-1.11,0.03-1.67c-0.09-0.43-0.05-0.87-0.09-1.3c-0.07-0.74-0.02-1.48-0.16-2.21
			c-0.09-0.48-0.01-0.96-0.05-1.44c-0.04-0.68,0.05-1.36,0.04-2.04c-0.01-0.67-0.16-1.32-0.24-1.97c-0.05-0.37-0.28-0.67-0.57-0.87
			c-0.2-0.14-0.43-0.25-0.62-0.4c-0.3-0.22-0.64-0.28-0.99-0.35c-0.66-0.14-1.33-0.06-2-0.09c-0.14-0.01-0.28,0.02-0.41,0.05
			c-0.34,0.09-0.67,0.09-1.01,0.04c-0.37-0.05-0.74-0.04-1.11,0c-0.42,0.04-0.76,0.3-1.21,0.27c-0.59-0.03-1.18,0.27-1.77-0.04
			c-0.06-0.03-0.15-0.01-0.23-0.01c-0.48,0.03-0.96,0.05-1.44,0.11c-0.41,0.06-0.83,0.05-1.24,0.15c-0.31,0.07-0.68,0.01-1.01,0.06
			c-1.03,0.14-2.05,0.32-3.09,0.4c-1.08,0.08-2.16,0.25-3.24,0.34c-1.33,0.1-2.67-0.1-4,0.08c-0.54,0.07-1.08,0.1-1.62,0.19
			c-0.78,0.13-1.55,0.29-2.36,0.17c-0.46-0.07-0.93-0.06-1.39-0.09c-0.45-0.02-0.89-0.05-1.34-0.1c-0.48-0.05-0.93-0.22-1.39-0.36
			c-0.22-0.07-0.31-0.04-0.43,0.15c-0.36,0.54-0.58,0.61-1.21,0.43c-0.09-0.03-0.18-0.05-0.27-0.08C86.6,1.72,86.47,1.74,86.4,1.9
			c-0.1,0.21-0.31,0.24-0.48,0.33c-0.2,0.09-0.34,0.13-0.4-0.16c-0.05-0.22-0.14-0.38-0.45-0.29c-0.12,0.04-0.36,0-0.48-0.19
			c-0.09-0.15-0.22-0.11-0.36-0.01c-0.28,0.2-0.4,0.51-0.41,0.81c-0.02,0.5-0.27,0.91-0.43,1.36c-0.08,0.22-0.21,0.35-0.49,0.33
			c-0.22-0.01-0.44,0.07-0.65,0.19C81.99,4.39,81.97,4.53,82,4.74c0.02,0.15,0.14,0.29,0.09,0.45c-0.14,0.47,0.01,0.95-0.01,1.42
			c-0.01,0.17-0.01,0.34-0.02,0.51c-0.03,0.5-0.07,0.99-0.09,1.49c-0.01,0.33,0.21,0.67-0.04,0.99c0.1,0.56-0.05,1.11-0.05,1.67
			c0,1.23-0.01,2.45-0.02,3.68c0,0.09,0,0.19-0.03,0.27c-0.11,0.33-0.05,0.68-0.01,1c0.04,0.38-0.05,0.75,0,1.13
			c0.05,0.34-0.04,0.7-0.01,1.03c0.03,0.34-0.01,0.67,0.05,1c0.02,0.12,0.02,0.26-0.07,0.35c-0.19,0.19-0.23,0.33,0.07,0.44
			c0.06,0.02,0.07,0.11,0.05,0.16c-0.07,0.17-0.04,0.37-0.17,0.52c-0.05,0.06-0.13,0.1-0.01,0.16c0.2,0.1,0.11,0.22,0.01,0.34
			c-0.08,0.09-0.21,0.2-0.07,0.31c0.23,0.18,0.21,0.41,0.16,0.63c-0.08,0.37,0.1,0.77-0.11,1.12c-0.02,0.03-0.02,0.11,0.01,0.13
			c0.36,0.3,0.13,0.62,0.04,0.93c-0.07,0.24-0.14,0.53-0.04,0.73c0.18,0.34,0.12,0.69,0.16,1.04c0.02,0.19-0.01,0.39,0.13,0.54
			c-0.09,0.06-0.15,0.03-0.2,0.01c-0.05-0.03-0.09-0.14-0.19-0.03c0.02,0.16,0.15,0.27,0.06,0.49c-0.12,0.3-0.2,0.69,0.1,0.99
			c-0.19,0.29-0.51,0.25-0.75,0.36c-0.9,0.42-1.85,0.72-2.78,1.07c-0.45,0.17-0.9,0.35-1.33,0.55c-0.38,0.18-0.93,0.11-1.1,0.66
			c-0.39,0.15-0.78,0.36-1.19,0.36c-0.27,0-0.5,0.12-0.4,0.14c-0.14,0.14-0.14,0.14-0.33,0.05c-0.21,0.06-0.5,0.02-0.46,0.38
			c0,0.03-0.07,0.07-0.11,0.1c0.37,0.02,0.69-0.18,1.02-0.3c0.16-0.06,0.31-0.18,0.62-0.13c-0.8,0.38-1.51,0.69-2.29,0.81
			c0,0-0.02,0.02-0.02,0.02c-0.14,0.09-0.28,0.2-0.44,0.25c-0.24,0.08-0.54,0.31-0.72,0.2c-0.25-0.16-0.42,0.09-0.61-0.02
			c-0.31-0.17-0.37,0.05-0.45,0.26c-0.01,0.03-0.07,0.06-0.12,0.07c-0.27,0.07-0.51,0.22-0.78,0.25c-0.05,0.04-0.11,0.09-0.16,0.13
			c-0.05,0.04-0.11,0.07-0.16,0.02c-0.04-0.05,0-0.1,0.03-0.15c-0.15,0-0.27-0.06-0.2-0.21c0.11-0.23,0.05-0.42-0.07-0.61
			c-0.07-0.11-0.07-0.24-0.08-0.36c-0.07-0.69,0.13-1.38-0.14-2.08c-0.15-0.39-0.1-0.88,0.14-1.29c0.04-0.07,0.01-0.15,0.02-0.23
			c0.03-0.62-0.34-1.2-0.21-1.83c0.01-0.04-0.04-0.09-0.09-0.08c-0.07,0.01-0.1,0.06-0.1,0.13c0,0.42-0.01,0.84,0.01,1.26
			c0.02,0.82,0.05,1.63,0.07,2.45c0,0.11,0.03,0.25-0.12,0.35c-0.08-0.23-0.03-0.46-0.04-0.68c-0.01-1.26-0.03-2.52-0.04-3.77
			c0-0.06-0.03-0.15,0.09-0.17c0.29-0.04,0.29-0.04,0.29-0.24c0-0.06-0.01-0.12-0.02-0.18c-0.06-0.25-0.05-0.49,0.13-0.7
			c0.09-0.11,0.11-0.24,0.05-0.35c-0.22-0.41-0.21-0.86-0.23-1.31c-0.04-0.71,0.02-1.42-0.07-2.12c-0.02-0.17,0.03-0.3,0.12-0.43
			c0.11-0.18,0.13-0.37,0.02-0.57c-0.26-0.49-0.2-1.02-0.06-1.52c0.07-0.24,0.17-0.42-0.07-0.62c-0.09-0.07-0.06-0.21-0.05-0.31
			c0.07-0.88,0.04-1.77,0.05-2.65c0.01-0.54,0.03-1.08-0.02-1.62c-0.03-0.35-0.1-0.72-0.04-1.06c0.06-0.38,0-0.76,0.03-1.13
			c0.03-0.38-0.04-0.77-0.02-1.16c0.04-0.92-0.05-1.83,0.05-2.75c0.04-0.39,0.17-0.76,0.19-1.14c0.02-0.57-0.08-1.14-0.02-1.71
			c0.01-0.1-0.02-0.22-0.06-0.32c-0.09-0.2-0.15-0.41-0.11-0.63c0.02-0.12-0.03-0.18-0.15-0.25c-0.35-0.19-0.72-0.19-1.07-0.05
			c-0.24,0.09-0.52,0.13-0.73,0.07c-0.52-0.13-1.01,0-1.52,0.01C64.7,3.5,64.23,3.6,63.74,3.55c-0.68-0.06-1.37-0.21-2.06-0.03
			c-0.11,0.03-0.25,0.01-0.37-0.04c-0.48-0.18-0.97-0.02-1.46-0.06c-0.45-0.03-0.9,0.04-1.34,0.04c-0.23,0-0.46-0.07-0.69-0.1
			c-0.12-0.02-0.26,0.01-0.2,0.16c0.14,0.35-0.09,0.53-0.31,0.68c-0.16,0.11-0.21,0.2-0.13,0.38c0.14,0.28,0.09,0.56-0.1,0.79
			c-0.18,0.22-0.2,0.46-0.1,0.7c0.13,0.31,0.09,0.61,0.06,0.91c-0.02,0.26-0.11,0.38-0.41,0.38c-0.35,0-0.4,0.11-0.27,0.44
			c0.03,0.07,0.07,0.14,0.11,0.2c0.06,0.11,0.02,0.18-0.09,0.21c-0.07,0.02-0.16-0.01-0.21,0.08c0.02,0.04,0.04,0.08,0.06,0.12
			c0.14,0.33,0.14,0.33-0.22,0.41c-0.01,0-0.03,0-0.05,0c-0.08,0.02-0.16,0.03-0.18,0.12c-0.03,0.1,0.05,0.14,0.12,0.17
			c0.14,0.06,0.23,0.15,0.32,0.27c0.06,0.08,0.08,0.22,0.01,0.25c-0.44,0.19-0.43,0.41-0.07,0.68c-0.02,0.3,0.19,0.52,0.25,0.79
			c0.04,0.17,0.06,0.33,0.08,0.5c0.05,0.54-0.13,1.07-0.03,1.61c0.13,0.71,0.12,1.42,0.12,2.14c0,0.19-0.01,0.37-0.03,0.56
			c-0.01,0.08-0.03,0.18-0.16,0.2c-0.11,0.01-0.05-0.19-0.18-0.14c-0.07,0.51-0.06,0.51,0.17,1.17c0.11,0.31,0.12,0.63,0.07,0.96
			c-0.09-0.12,0.01-0.31-0.17-0.43c-0.07,0.17-0.04,0.34-0.04,0.5c-0.01,0.59,0.21,1.19-0.04,1.78c-0.03,0.08,0.01,0.18,0.02,0.28
			c0.08,0.48,0.07,0.96,0.09,1.44c0.04,0.96-0.11,1.92-0.06,2.89c0.03,0.62,0.01,1.24-0.15,1.85c-0.08,0.29-0.1,0.58-0.08,0.88
			c0.02,0.51,0.05,1.02,0.07,1.54c0.01,0.2-0.03,0.4-0.03,0.61c-0.01,0.2,0,0.4,0,0.61c0,0.2-0.01,0.4-0.01,0.61
			c0,0.22-0.02,0.44,0,0.65c0.02,0.19-0.15,0.42,0.03,0.57c0.28,0.22-0.22,0.31-0.06,0.49c0.01,0.01,0,0.03,0.01,0.05
			c0.09,0.72,0.03,1.45-0.01,2.17c-0.06,1.07-0.02,2.14,0.06,3.2c0.04,0.51-0.03,0.66-0.53,0.81c-0.99,0.32-1.95,0.71-2.92,1.08
			c-0.26,0.1-0.54,0.12-0.81,0.18c-0.52,0.12-0.93,0.53-1.48,0.51c-0.05,0-0.12,0.05-0.15,0.1c-0.16,0.31-0.47,0.38-0.75,0.5
			c-0.7,0.32-1.51,0.35-2.18,0.78c-0.11,0.07-0.3,0.14-0.39,0.03c-0.1-0.15-0.17-0.12-0.23-0.01c-0.12,0.22-0.33,0.27-0.53,0.33
			c-0.48,0.14-0.93,0.36-1.41,0.48c-0.78,0.19-1.53,0.63-2.38,0.47c-0.04-0.01-0.09,0.01-0.13,0.03c-0.04,0.02-0.07,0.08-0.03,0.11
			c0.11,0.08,0.11,0.15-0.03,0.17c-0.26,0.04-0.48,0.2-0.74,0.21c-0.03-0.08,0.19-0.26-0.08-0.2c-0.58,0.12-0.58,0.13-0.66-0.44
			c-0.01-0.08-0.03-0.15-0.03-0.23c-0.08-1.44-0.31-2.87-0.38-4.32c-0.05-0.91-0.2-1.82-0.31-2.73c-0.13-1.08-0.31-2.15-0.4-3.24
			c-0.09-1.02-0.27-2.03-0.32-3.06c-0.03-0.56-0.17-1.1-0.23-1.66c-0.06-0.54-0.07-1.08-0.19-1.62c-0.25-1.16-0.37-2.33-0.42-3.51
			c-0.02-0.65,0.01-1.3-0.06-1.95c-0.07-0.65,0.11-1.29,0.02-1.94c-0.07-0.51,0.11-1,0.06-1.52c-0.05-0.47-0.08-0.96-0.07-1.43
			c0.01-0.38,0-0.77,0.04-1.16c0.08-0.69,0.06-1.39,0.02-2.08c-0.03-0.47,0.02-0.92,0.06-1.39c0.04-0.57,0.23-1.09,0.47-1.59
			c0.08-0.17,0.16-0.33,0.21-0.51c0.13-0.48,0.21-0.97,0.35-1.44c0.23-0.76,0.49-1.48,0.47-2.3c-0.02-0.73,0.02-1.43-0.59-1.97
			c-0.05-0.05-0.13-0.11-0.05-0.19c0.05-0.05,0.16-0.08,0.06-0.17c-0.05-0.04-0.13-0.05-0.17,0c-0.2,0.22-0.35,0.07-0.52-0.04
			c-0.17-0.11-0.33-0.25-0.54-0.25c-0.48-0.01-0.9-0.23-1.34-0.34c-0.26-0.06-0.39-0.31-0.66-0.33c-0.52-0.03-1.05,0.01-1.49,0.26
			c-0.28,0.16-0.55,0.18-0.83,0.2c-0.22,0.01-0.43,0.04-0.65,0.04c-0.38,0.01-0.74,0.17-1.11,0.11c-0.49-0.07-0.97-0.12-1.48-0.11
			c-0.66,0.02-1.33,0.05-1.98-0.16c-0.13-0.04-0.28-0.05-0.42-0.05c-0.29-0.01-0.53,0.11-0.65,0.37c-0.11,0.25-0.25,0.5-0.26,0.79
			c-0.01,0.19-0.08,0.35-0.18,0.52c-0.16,0.26-0.27,0.53-0.25,0.87c0.03,0.46-0.01,0.93-0.24,1.35c-0.05,0.09-0.06,0.2-0.06,0.32
			c-0.01,0.56-0.13,1.11-0.37,1.62c-0.09,0.18-0.12,0.38-0.11,0.59c0.02,0.79,0.32,1.54,0.33,2.34c0,0.22,0.07,0.45,0.02,0.68
			c-0.03,0.13,0.01,0.28,0.01,0.42c0.01,0.35,0.14,0.7-0.06,1.04c-0.06,0.1,0.01,0.21,0.02,0.32c0.05,0.39,0.1,0.77,0.13,1.16
			c0.01,0.16-0.01,0.3-0.25,0.28c-0.32-0.02-0.33,0.02-0.24,0.33c0.06,0.2,0.1,0.41,0.15,0.62c-0.37,0.06-0.06,0.2-0.03,0.3
			c0.02,0.09,0.07,0.18,0.08,0.27c0.1,0.86,0.11,1.72,0.08,2.58c-0.03-0.04-0.03-0.09-0.04-0.13c-0.06-0.45-0.02-0.9-0.01-1.35
			c0-0.1-0.03-0.19-0.13-0.23c-0.13-0.04-0.13,0.09-0.18,0.16c-0.12,0.14-0.14,0.3-0.16,0.47c-0.06,0.61,0.01,1.21,0,1.81
			c-0.01,0.86,0.12,1.71,0.1,2.56c-0.02,0.93,0.1,1.84,0.09,2.76c-0.01,0.38-0.1,0.79,0.07,1.15c0.18,0.38-0.13,0.77,0.08,1.13
			c-0.07,0.66,0.02,1.32,0.05,1.99c0.01,0.32-0.05,0.65,0.05,0.96c0.02,0.07,0,0.15-0.01,0.23c-0.11,0.8-0.1,1.61-0.05,2.41
			c0.01,0.14,0.01,0.3,0.1,0.4c0.19,0.22,0.14,0.42,0,0.64c-0.06,0.09-0.06,0.2-0.05,0.31c0.06,0.77,0.1,1.53,0.06,2.31
			c-0.05,0.83-0.1,1.67,0.11,2.5c0.01,0.06,0.01,0.13-0.01,0.18c-0.17,0.47-0.07,0.96-0.13,1.43c-0.05,0.46-0.08,0.93,0.1,1.37
			c0.02,0.06,0.03,0.14-0.02,0.17c-0.17,0.13-0.15,0.25-0.02,0.39c0.1,0.11,0.08,0.25,0.06,0.36c-0.08,0.33,0.22,0.7-0.1,1.01
			c-0.03,0.03,0.01,0.15,0.03,0.22c0.04,0.15,0.02,0.3,0.01,0.46c-0.03,0.46-0.06,0.93,0.2,1.35c0.06,0.1,0.04,0.19,0.03,0.3
			c-0.04,0.3-0.09,0.63-0.03,0.92c0.05,0.25,0.03,0.46-0.06,0.67c-0.11,0.24-0.08,0.5-0.03,0.73c0.07,0.36,0.09,0.35-0.2,0.51
			c-0.31,0.17-0.65,0.2-0.97,0.32c-0.94,0.36-1.88,0.73-2.83,1.06c-0.52,0.18-1.05,0.35-1.59,0.49c-0.64,0.17-1.22,0.51-1.86,0.7
			c-0.86,0.25-1.71,0.54-2.57,0.8c-0.75,0.22-1.52,0.31-2.29,0.39c-0.49,0.05-1-0.01-1.37,0.42c-0.03,0.03-0.08,0.05-0.12,0.06
			c-0.13,0.04-0.21,0.11-0.25,0.25c-0.05,0.21-0.19,0.3-0.41,0.29c-0.11-0.01-0.21,0.06-0.31,0.1c-0.44,0.15-0.89,0.28-1.33,0.42
			c-0.38,0.12-0.78,0.17-1.16,0.3c-0.42,0.14-0.85,0.36-1.35,0.25c-0.33-0.07-0.65,0.42-0.49,0.74c0.09,0.18,0.07,0.32-0.04,0.42
			c-0.19,0.16-0.37,0.37-0.62,0.39c-0.35,0.03-0.64,0.21-0.95,0.35c-0.56,0.26-1.17,0.41-1.73,0.67c-0.41,0.19-0.8,0.35-0.84,0.88
			c0,0.06-0.06,0.11-0.09,0.16c-0.1,0.16-0.2,0.29-0.41,0.14c-0.1-0.07-0.22-0.04-0.31-0.01c-0.26,0.09-0.54,0.1-0.79,0.26
			c-0.21,0.13-0.4,0.08-0.55-0.13c-0.05-0.07-0.06-0.13-0.16-0.11c-0.18,0.04-0.37,0.05-0.54,0.15c-0.17,0.1-0.07,0.25-0.09,0.37
			c0,0.03-0.01,0.07-0.04,0.08c-0.24,0.18-0.05,0.3,0.05,0.45c0.2,0.3,0.53,0.45,0.77,0.71c0.13,0.14,0.24,0.28,0.36,0.42
			c0.11,0.12,0.32,0.29,0.3,0.39c-0.09,0.38,0.23,0.15,0.32,0.25c0.05,0.05,0.06,0.1,0.05,0.17c-0.06,0.24,0.1,0.39,0.21,0.58
			c0.16,0.27,0.53,0.38,0.59,0.68c0.11,0.55,0.53,0.9,0.81,1.33c0.16,0.24,0.27,0.52,0.47,0.74c0.28,0.31,0.65,0.58,0.59,1.09
			c0,0.03,0.01,0.08,0.03,0.08c0.3,0.12,0.29,0.42,0.39,0.65c0.06,0.12,0.11,0.21,0.25,0.25c0.3,0.1,0.43,0.4,0.48,0.63
			c0.1,0.51,0.37,0.76,0.85,0.86c0.32,0.06,0.65,0.07,0.98,0.06c0.66-0.03,1.27-0.26,1.9-0.46c1.32-0.42,2.64-0.85,3.92-1.37
			c1.86-0.76,3.66-1.63,5.49-2.45c1.68-0.76,3.35-1.57,5.06-2.27c0.37-0.15,0.72-0.37,1.1-0.5c0.43-0.15,0.84-0.31,1.26-0.49
			c0.62-0.26,0.69-0.23,0.82,0.44c0.01,0.06,0.05,0.13,0.03,0.18c-0.22,0.58,0.16,1.2-0.1,1.78c-0.07,0.16,0.11,0.3,0.09,0.49
			c-0.02,0.15-0.2,0.42,0.13,0.52c0.01,0,0.01,0.08,0.01,0.13c-0.06,0.39-0.04,0.79-0.01,1.18c0.01,0.16,0.01,0.31-0.03,0.46
			c-0.18,0.57-0.14,1.17-0.09,1.75c0.06,0.69,0.16,1.37,0.06,2.06c-0.01,0.07,0.03,0.15,0.03,0.23c-0.01,0.37,0.14,0.73,0.03,1.1
			c-0.17,0.58,0.2,1.15,0.01,1.73c-0.01,0.03,0.04,0.08,0.07,0.12c0.15,0.29,0.18,0.65,0.08,0.91c-0.15,0.37-0.06,0.71,0.01,1.04
			c0.06,0.29,0.08,0.58,0.12,0.87c0.02,0.16-0.04,0.25-0.09,0.38c-0.08,0.2,0.25,0.16,0.23,0.35c0,0.01,0.01,0.03,0.01,0.05
			c0.01,0.49,0.06,0.99,0.02,1.48c-0.02,0.26-0.05,0.52,0.01,0.77c0.13,0.57,0.06,1.14,0.09,1.7c0.03,0.52-0.01,1.05,0.17,1.56
			c0.03,0.07,0.04,0.15,0.03,0.23c-0.11,0.54-0.08,1.07,0.08,1.6c0.03,0.09,0.04,0.2,0.01,0.27c-0.12,0.26-0.05,0.52-0.01,0.78
			c0.03,0.17,0.01,0.33-0.02,0.51c-0.06,0.44-0.11,0.9-0.06,1.34c0.04,0.35,0.05,0.71,0.04,1.06c-0.02,0.79-0.04,1.58-0.05,2.37
			c0,0.08,0.01,0.15,0.02,0.23c0.05,0.43,0.09,0.86,0.02,1.29c-0.02,0.14-0.05,0.29,0.02,0.41c0.08,0.14,0.01,0.26,0.01,0.4
			c-0.03,0.59-0.06-0.13-0.02,0.46c0.04,0.49-0.09,0.99,0.1,1.47c0.02,0.05-0.01,0.12-0.03,0.18c-0.09,0.21-0.09,0.42-0.07,0.64
			c0.02,0.26,0.05,0.53,0.03,0.79c-0.08,0.81-0.06,0.67-0.05,1.48c0.01,0.48-0.08,0.96,0.04,1.43c-0.22,0.79,0.03,1.6-0.06,2.4
			c-0.07,0.63,0.04,1.27-0.02,1.9c-0.09,1.03-0.03,2.05-0.01,3.08c0.01,0.48,0.01,0.96,0.18,1.43c0.05,0.14,0.08,0.25,0.22,0.33
			c0.43,0.24,0.89,0.28,1.35,0.17c0.17-0.04,0.32-0.1,0.49-0.06c0.11,0.02,0.21,0.06,0.29-0.07c0.05-0.08,0.12-0.08,0.2-0.02
			c0.21,0.17,0.38,0.13,0.55-0.07c0.12-0.14,0.18-0.05,0.27,0.07c0.18,0.22,0.28,0.22,0.52,0.03c0.13-0.1,0.23-0.14,0.35,0.01
			c0.12,0.15,0.27,0.27,0.46,0.06c0.03-0.04,0.12-0.04,0.18-0.04c0.4,0.06,0.81,0.02,1.19,0.17c0.24,0.09,0.47,0.09,0.68,0.01
			c0.21-0.08,0.38-0.07,0.58-0.01c0.26,0.08,0.5,0.09,0.76-0.03c0.23-0.11,0.51-0.15,0.76-0.03c0.15,0.07,0.28,0.08,0.38-0.05
			c0.13-0.17,0.09-0.35,0.01-0.53c-0.09-0.18-0.22-0.13-0.35-0.06c-0.26,0.14-0.28-0.18-0.44-0.24c-0.07-0.03-0.08-0.18,0.01-0.24
			c0.31-0.24,0.24-0.55,0.15-0.85c-0.07-0.21,0.04-0.24,0.19-0.28c0.14-0.03,0.27-0.04,0.39,0.08c0.07,0.07,0.17,0.13,0.25,0.09
			c0.41-0.18,0.78,0.09,1.18,0.07c0.45-0.03,0.92,0.06,1.38,0.05c0.33,0,0.68-0.17,1,0.04c0.03,0.02,0.1,0.01,0.13-0.01
			c0.38-0.2,0.79-0.1,1.17-0.06c0.29,0.03,0.5-0.19,0.78-0.14c0.11,0.02,0.13-0.15,0.15-0.26c0.04-0.31,0.09-0.62,0.08-0.93
			c-0.02-0.56-0.1-1.11-0.16-1.67c-0.27-2.47-0.21-4.04-0.47-6.51c-0.04-0.36-0.08-0.71-0.08-1.07c0.01-0.79-0.12-1.58-0.13-2.37
			c-0.01-0.53-0.17-1.05-0.15-1.57c0.05-1.08-0.11-0.84-0.16-1.91c-0.06-1.41-0.23-2.82-0.26-4.23c-0.01-0.26-0.03-0.53-0.06-0.79
			c-0.1-1.15-0.22-2.29-0.28-3.44c-0.08-1.35-0.11-2.7-0.19-4.05c-0.03-0.45-0.11-0.9-0.11-1.34c0-1.07-0.03-2.14-0.05-3.21
			c-0.04-1.94-0.25-3.88-0.24-5.82c0.01-1.13-0.04-2.27-0.04-3.4c0-1.79-0.1-3.57-0.13-5.36c-0.02-0.95,0.05-1.9,0.01-2.84
			c-0.01-0.18,0.09-0.27,0.25-0.35c0.54-0.26,1.18-0.3,1.65-0.71c0.03-0.03,0.09-0.03,0.13-0.04c0.86-0.19,1.73-0.37,2.53-0.8
			c0.05-0.03,0.13-0.03,0.18-0.01c0.25,0.1,0.45-0.04,0.66-0.13c0.31-0.13,0.61-0.32,0.94-0.34c0.5-0.04,0.93-0.32,1.43-0.36
			c0.09-0.01,0.17-0.06,0.23-0.14c0.05-0.07,0.12-0.1,0.2-0.1c0.48-0.01,0.94-0.19,1.41-0.26c0.51-0.07,0.98-0.23,1.44-0.45
			c0.24-0.12,0.48-0.26,0.77-0.31c0.39-0.06,0.8-0.12,1.13-0.33c0.5-0.31,1.09-0.36,1.6-0.61c0.22-0.11,0.34-0.03,0.41,0.21
			c0.06,0.21,0.04,0.44-0.01,0.65c-0.22,0.89-0.16,1.79-0.11,2.69c0.06,0.97,0.06,1.94,0.06,2.91c0,0.57-0.05,1.15,0.01,1.72
			c0.06,0.67,0.02,1.34-0.04,2c-0.07,0.76-0.14,1.51-0.16,2.27c-0.01,0.43-0.08,0.87-0.03,1.3c0.04,0.37,0.06,0.75,0.01,1.11
			c-0.12,0.87-0.22,1.74-0.25,2.62c-0.01,0.43,0.02,0.87-0.07,1.3c-0.11,0.55-0.17,1.1-0.19,1.66c-0.02,0.67-0.06,1.33-0.08,2
			c-0.04,1.18-0.08,2.36,0.01,3.54c0.09,1.28,0.08,2.57,0.23,3.86c0.08,0.69,0.09,1.39,0.13,2.09c0.04,0.63,0.1,1.27,0.07,1.91
			c-0.03,0.59-0.02,1.17,0.27,1.73c0.1,0.2,0.1,0.45,0.03,0.69c-0.02,0.09-0.07,0.19-0.04,0.27c0.13,0.42-0.01,0.85,0.04,1.27
			c0.05,0.39,0.21,0.6,0.6,0.58c0.11-0.01,0.21,0,0.32,0.02c0.24,0.03,0.52,0.1,0.73,0.01c0.36-0.15,0.73-0.09,1.09-0.13
			c0.54-0.06,1.06-0.16,1.59-0.26c0.49-0.09,0.97-0.34,1.49-0.18c0.42,0.13,0.83,0.06,1.23-0.08c0.03-0.01,0.06-0.02,0.09-0.01
			c0.7,0.06,1.37-0.21,2.07-0.2c0.22,0,0.48-0.02,0.49-0.36c0-0.06,0.14-0.16,0.16-0.07c0.1,0.35,0.28,0.13,0.42,0.07
			c0.35-0.15,0.81-0.19,0.77-0.75c0-0.04,0.07-0.09,0.11-0.14c0.14-0.18,0.22-0.34-0.06-0.47c-0.15-0.08-0.16-0.25-0.18-0.4
			c-0.01-0.06,0.03-0.16,0.09-0.11c0.2,0.18,0.16-0.02,0.21-0.11c0.14-0.28,0.21-0.58,0.26-0.89c0.05-0.28,0.19-0.49,0.42-0.69
			c0.38-0.33,1-0.42,1.13-1.03c0-0.02,0.06-0.04,0.07-0.03c0.04,0.02,0.1,0.05,0.1,0.08c0,0.06-0.05,0.11-0.05,0.17
			c0,0.11,0.07,0.18,0.18,0.16c0.1-0.02,0.12-0.11,0.07-0.18c-0.07-0.1-0.06-0.16,0.03-0.24c0.11-0.1,0.1-0.22,0.01-0.33
			c-0.16-0.2,0.01-0.31,0.15-0.41c-0.16-0.18-0.4-0.18-0.51-0.36c0.02-0.05,0.03-0.09,0.05-0.1c0.19-0.1,0.42-0.17,0.18-0.46
			c-0.05-0.07-0.05-0.36,0.23-0.22c0.04,0.02,0.12,0.01,0.13,0c0.1-0.3,0.36-0.4,0.62-0.5c0.02-0.01,0.05-0.05,0.04-0.08
			c-0.03-0.32,0.15-0.62,0.08-0.96c-0.24-1.1-0.25-2.22-0.32-3.34c-0.07-1.05-0.23-2.09-0.28-3.14c-0.03-0.59-0.17-1.16-0.2-1.75
			c-0.02-0.33,0.09-0.65,0.03-0.97c-0.11-0.65-0.1-1.32-0.24-1.97c-0.04-0.17-0.02-0.36,0.03-0.55c0.08-0.27,0.05-0.56,0-0.85
			c-0.09-0.58-0.19-1.16-0.16-1.75c0.02-0.27,0.08-0.55,0.01-0.83c-0.1-0.33-0.11-0.67-0.05-1.01c0.03-0.19,0.05-0.38-0.03-0.55
			c-0.16-0.38-0.14-0.76-0.06-1.15c0.03-0.14,0.03-0.27,0.01-0.41c-0.12-1.11-0.12-2.24-0.07-3.35c0.04-1.02,0.07-2.05,0.04-3.06
			c-0.02-0.78,0.21-1.54,0.08-2.32c-0.03-0.21,0.17-0.29,0.27-0.43c-0.2-0.11-0.25-0.29-0.24-0.5c0.02-0.42,0.02-0.84,0.04-1.26
			c0.06-1,0.21-2,0.08-3c-0.06-0.44,0.06-0.89-0.07-1.34c-0.06-0.2,0.01-0.29,0.23-0.63c0.08-0.12,0.22-0.22,0.34-0.22
			c0.33-0.02,0.58-0.22,0.85-0.35c0.33-0.16,0.69-0.22,1.07-0.45c-0.23,0.49-0.82,0.41-1.02,0.87c0.31-0.03,0.54-0.14,0.77-0.27
			c0.18-0.11,0.36-0.29,0.57-0.27c0.4,0.03,0.75-0.11,1.1-0.26c0.85-0.38,1.71-0.75,2.55-1.15c0.92-0.44,1.91-0.74,2.77-1.33
			c0.06-0.04,0.15-0.09,0.22-0.07c0.5,0.14,0.91-0.19,1.33-0.33c0.5-0.16,1.01-0.24,1.53-0.48c0.04,0.18,0.01,0.35,0.18,0.44
			c0.22,0.11,0.18,0.3,0.08,0.48c-0.03,0.06-0.12,0.06-0.07,0.18c0.2,0.53,0.17,0.67-0.14,1.06c-0.04,0.05-0.07,0.12,0.04,0.18
			c0.26,0.14,0.25,0.34-0.03,0.54c-0.11,0.08-0.09,0.24,0.05,0.29c0.09,0.03,0.16,0.05,0.14,0.13c-0.05,0.24,0.01,0.49-0.13,0.72
			c-0.12,0.19-0.2,0.39,0.02,0.58c0.07,0.07,0.08,0.2,0.01,0.26c-0.17,0.13,0.06,0.42-0.23,0.51c-0.07,0.02,0,0.89,0.06,1.04
			c0.12-0.13,0.1-0.32,0.16-0.47c0.24,0.43-0.15,0.86,0,1.29c0,0.01-0.01,0.03-0.02,0.03c-0.31,0.03-0.12,0.14-0.04,0.23
			c0.07,0.08,0.07,0.17,0.05,0.26c-0.04,0.29,0.01,0.59,0.03,0.88c0.01,0.17,0.04,0.35-0.08,0.49c-0.27,0.33-0.23,0.72-0.2,1.1
			c0.01,0.15,0.11,0.21,0.18,0.31c0.12,0.15-0.24,0.08-0.22,0.27c0.01,0.12-0.01,0.25,0,0.37c0.03,0.24-0.18,0.54,0.22,0.69
			c0.09,0.03,0.11,0.33,0,0.43c-0.36,0.31-0.24,0.69-0.18,1.06c0.01,0.09,0.04,0.17,0.01,0.27c-0.1,0.44-0.11,0.89-0.08,1.34
			c0.01,0.18-0.04,0.38,0.21,0.46c0.07,0.03,0.08,0.18,0.01,0.19c-0.38,0.1-0.18,0.4-0.22,0.61c-0.02,0.08-0.19,0.43,0.2,0.27
			c0.04-0.02,0.06,0.07,0.05,0.1c-0.06,0.26,0.08,0.55-0.19,0.78c-0.12,0.1-0.15,0.37-0.04,0.48c0.21,0.22,0.2,0.36-0.01,0.56
			c-0.08,0.07,0,0.19,0.11,0.26c0.12,0.08,0.17,0.14-0.01,0.26c-0.18,0.12-0.15,0.36,0.04,0.45c0.1,0.05,0.11,0.09,0.11,0.16
			c-0.02,0.29,0,0.59-0.13,0.86c-0.12,0.24-0.1,0.48,0.05,0.64c0.2,0.22-0.18,0.45,0.07,0.63c-0.01,0.01-0.02,0.03-0.03,0.03
			c-0.27,0.13-0.17,0.36-0.17,0.57c0.01,0.7,0.03,1.39,0.07,2.09c0.02,0.28-0.02,0.56-0.02,0.84c0,0.09-0.02,0.23,0.06,0.25
			c0.33,0.1,0.16,0.35,0.19,0.54c0.02,0.15-0.12,0.25-0.17,0.37c-0.09,0.2,0.19,0.17,0.17,0.31c0,0.04-0.04,0.09-0.05,0.13
			c-0.11,0.58-0.06,1.16-0.02,1.75c0.01,0.23,0.14,0.4,0.31,0.4c0.2,0,0.39,0.1,0.58,0.04c0.25-0.08,0.36,0.01,0.45,0.24
			c0.11,0.32,0.36,0.4,0.69,0.41c0.4,0.01,0.79-0.1,1.19-0.13c0.2-0.02,0.36,0.13,0.54,0.06c0.17-0.07,0.3-0.32,0.53-0.08
			c0.04,0.04,0.11-0.04,0.13-0.1c0.03-0.06,0.08-0.1,0.15-0.09c0.47,0.06,0.92-0.05,1.38-0.11c0.71-0.09,1.44-0.13,2.16-0.05
			c0.36,0.04,0.71-0.04,1.06-0.09c0.49-0.07,0.98-0.14,1.47-0.23c0.5-0.1,1.01-0.16,1.49-0.33c0.17-0.06,0.32-0.13,0.4-0.29
			c0.18-0.36,0.36-0.73,0.3-1.15c-0.04-0.29-0.05-0.59-0.01-0.88c0.03-0.25,0-0.49-0.03-0.74c-0.06-0.47-0.07-0.95-0.1-1.43
			c-0.02-0.34,0-0.67-0.07-1.01c-0.16-0.75-0.08-1.52-0.15-2.27c-0.12-1.1-0.12-2.2-0.13-3.3c-0.01-0.67-0.04-1.34-0.02-2
			c0.02-1.09-0.02-2.17-0.12-3.25c-0.02-0.23-0.05-0.47,0.02-0.69c0.02-0.07,0.02-0.14,0.1-0.2c0.21-0.15,0.23-0.19,0.05-0.28
			c-0.26-0.13-0.21-0.29-0.09-0.45c0.15-0.19,0.15-0.4,0.15-0.62c0-0.2,0-0.4-0.01-0.6c-0.01-0.11,0.01-0.24-0.09-0.3
			c-0.21-0.15-0.19-0.36-0.14-0.54c0.11-0.35-0.01-0.75,0.21-1.08c0.02-0.03,0.02-0.09,0.01-0.14c-0.14-0.58-0.05-1.17-0.02-1.76
			c0.02-0.31,0.03-0.62-0.16-0.89c-0.04-0.06-0.05-0.15-0.05-0.22c0.01-0.76,0-1.51,0.07-2.27c0.03-0.37,0.06-0.75,0.06-1.12
			c0.01-1.04-0.1-2.08,0.24-3.12c0.16-0.47,0.08-1.04-0.01-1.65c-0.04,0.42,0.01,0.76-0.14,1.07c0.01-0.38,0.03-0.76-0.01-1.14
			c-0.01-0.1,0.03-0.3,0.04-0.3c0.25-0.08-0.06-0.37,0.16-0.44c0.34-0.11,0.63-0.33,0.99-0.4c0.23-0.05,0.44-0.12,0.61-0.31
			c0.08-0.09,0.23-0.19,0.37-0.15c0.25,0.08,0.42-0.05,0.59-0.19c0.07-0.06,0.16-0.07,0.25-0.1c0.44-0.11,0.96,0.02,1.3-0.42
			c0.02-0.03,0.09-0.02,0.13-0.03c0.77-0.21,1.56-0.33,2.28-0.71c0.07-0.04,0.14-0.05,0.22-0.03c0.31,0.1,0.55-0.04,0.76-0.23
			c0.1-0.09,0.19-0.15,0.32-0.14c0.54,0.01,1.03-0.16,1.53-0.32c0.5-0.15,0.98-0.39,1.51-0.4c0.05-0.16,0.21-0.13,0.33-0.17
			c0.18-0.07,0.4-0.02,0.55-0.2c-0.1,0.16-0.12,0.39-0.31,0.46c-0.63,0.24-1.24,0.58-1.95,0.57c-0.22,0-0.41,0.03-0.61,0.16
			c-0.13,0.08-0.2,0.22-0.29,0.27c-0.15,0.08-0.37,0.02-0.55,0.02c-0.25-0.01-0.15,0.15-0.17,0.25c-0.5-0.2-0.91,0.08-1.43,0.22
			c0.77,0.13,0.76,0.11,1.09,0.04c0.67-0.15,1.29-0.45,1.98-0.54c0.27-0.03,0.57-0.01,0.77-0.27c0.03-0.03,0.12-0.03,0.18-0.02
			c0.18,0.02,0.33-0.07,0.5-0.09c0.45-0.05,0.78-0.38,1.23-0.47c1.45-0.3,2.82-0.84,4.21-1.36c0.81-0.3,1.6-0.64,2.41-0.96
			c0.91-0.35,1.83-0.7,2.73-1.07c0.76-0.31,1.52-0.63,2.27-0.98c0.43-0.2,0.89-0.27,1.31-0.47c0.48-0.22,0.95-0.44,1.45-0.62
			c0.3-0.11,0.68-0.19,0.87-0.41c0.25-0.29,0.53-0.65,0.52-1.07c-0.02-0.45,0.08-0.87,0.11-1.31c0.04-0.56,0.1-1.11,0.16-1.66
			C122.32,23.57,122.29,23.24,122.08,22.99z M108.08,19.38c0.04,0.4-0.19,0.71-0.58,0.74c-0.39,0.03-0.7,0.2-1.02,0.39
			c-0.29,0.17-0.62,0.28-0.91,0.44c-1.01,0.56-2.14,0.83-3.18,1.32c-0.15,0.07-0.26,0.08-0.36-0.06c-0.16-0.22-0.37-0.18-0.59-0.1
			c-0.66,0.24-1.35,0.38-2.03,0.53c-0.28,0.06-0.56,0.05-0.83,0.33c0.2-0.02,0.35-0.03,0.53-0.05c-0.21,0.21-0.44,0.22-0.67,0.14
			c-0.16-0.06-0.29-0.04-0.45,0c-0.79,0.21-1.59,0.42-2.38,0.63c-0.64,0.17-1.29,0.34-1.94,0.5c0.06-0.32-0.06-0.62-0.08-0.92
			c-0.02-0.33,0-0.65,0.05-0.97c0.05-0.36-0.01-0.71-0.01-1.06c0-0.54-0.17-1.06-0.03-1.63c0.17-0.65,0.15-1.34,0.2-2.01
			c0.01-0.15,0.05-0.32-0.04-0.46c-0.17-0.28-0.09-0.54,0.01-0.8c0.04-0.1,0.1-0.2,0.06-0.31c-0.11-0.39-0.05-0.77,0.09-1.14
			c0.04-0.1,0.06-0.21,0.03-0.32c-0.05,0.04-0.09,0.08-0.13,0.11c-0.08-0.81,0.14-0.89,0.74-1.02c1.45-0.3,2.92-0.43,4.4-0.48
			c0.43-0.02,0.87-0.07,1.3-0.12c0.52-0.06,1.05,0.02,1.58-0.05c1.08-0.12,2.17-0.08,3.25-0.16c0.72-0.05,1.44-0.02,2.25-0.07
			c-0.27-0.1-0.47-0.03-0.71-0.07c0.23-0.21,0.49-0.17,0.73-0.17c-0.02-0.12-0.15-0.15-0.12-0.26c0.26-0.01,0.38,0.15,0.43,0.38
			c0.04,0.18,0.07,0.36,0.07,0.55c-0.01,1.53,0.11,3.04,0.3,4.56c0.06,0.47,0.13,0.95,0,1.43
			C108.04,19.25,108.08,19.31,108.08,19.38z"/>
	</g>
</g>
</svg>
