<?xml version="1.0" standalone="no"?>
<!DOCTYPE svg PUBLIC "-//W3C//DTD SVG 20010904//EN"
 "http://www.w3.org/TR/2001/REC-SVG-20010904/DTD/svg10.dtd">
<svg version="1.0" xmlns="http://www.w3.org/2000/svg"
 width="388.000000pt" height="388.000000pt" viewBox="0 0 388.000000 388.000000"
 preserveAspectRatio="xMidYMid meet">
<metadata>
Created by potrace 1.11, written by Peter Selinger 2001-2013
</metadata>
<g transform="translate(0.000000,388.000000) scale(0.100000,-0.100000)"
fill="#000000" stroke="none">
<path d="M3490 3603 c-30 -1 -98 -8 -150 -13 -52 -6 -129 -13 -170 -16 -41 -2
-109 -7 -150 -10 -106 -8 -107 -8 -187 -1 -46 4 -74 3 -78 -4 -4 -5 -15 -7
-25 -4 -10 3 -21 1 -25 -5 -4 -7 -11 -7 -18 -2 -33 25 -46 21 -58 -16 -6 -21
-20 -42 -32 -48 -23 -10 -23 0 -27 -471 l-2 -272 -80 -31 c-44 -16 -84 -30
-89 -30 -5 0 -9 -4 -9 -9 0 -5 -14 -12 -30 -16 -17 -4 -28 -11 -25 -16 4 -5
-1 -6 -9 -3 -9 3 -16 2 -16 -4 0 -10 -31 -23 -65 -26 -11 -1 -30 -7 -42 -14
-20 -11 -23 -10 -24 5 -1 27 -7 75 -14 100 -3 12 -1 24 4 27 5 4 5 22 1 43 -5
20 -6 41 -3 46 3 6 5 37 3 71 -1 34 -3 187 -4 341 l-1 280 -167 1 c-164 1
-166 1 -179 -22 -6 -13 -12 -38 -11 -56 0 -18 -4 -35 -9 -39 -6 -3 -11 -16
-12 -27 -1 -12 -4 -22 -8 -22 -7 0 -4 -44 4 -57 8 -12 8 -114 2 -328 -3 -99
-6 -258 -7 -352 -1 -95 -3 -173 -3 -173 -7 0 -157 -55 -180 -66 -42 -19 -141
-53 -197 -67 -25 -7 -50 -15 -53 -19 -12 -12 -44 11 -43 30 2 27 -14 183 -27
272 -2 14 -7 54 -10 90 -4 36 -9 72 -10 80 -20 112 -28 480 -12 535 5 17 15
53 24 80 19 64 19 122 -1 144 -25 28 -112 45 -166 33 -25 -6 -77 -9 -117 -6
-67 4 -84 -1 -89 -26 0 -3 -3 -12 -6 -20 -8 -21 -30 -133 -29 -145 8 -112 10
-195 4 -195 -5 0 -9 -17 -9 -37 -1 -21 -3 -56 -4 -78 -2 -22 0 -130 4 -240 4
-110 9 -310 10 -444 l3 -243 -36 -16 c-63 -26 -265 -94 -296 -99 -61 -9 -71
-12 -109 -32 -21 -11 -63 -26 -92 -32 -40 -9 -54 -17 -54 -29 0 -12 -19 -25
-60 -40 -33 -12 -64 -29 -69 -38 -5 -8 -25 -16 -47 -17 -49 -3 -53 -21 -14
-62 17 -18 27 -33 23 -33 -4 0 -1 -6 7 -13 15 -13 35 -40 47 -67 4 -8 11 -19
15 -25 5 -5 22 -31 39 -57 24 -38 37 -48 58 -48 45 0 197 55 351 127 189 89
249 113 255 103 3 -4 7 -112 9 -239 3 -127 8 -237 13 -244 4 -6 8 -225 9 -485
1 -261 5 -476 8 -480 10 -10 286 -13 286 -3 0 5 -6 11 -14 14 -8 3 -12 14 -9
25 4 17 14 19 101 18 l97 -1 -1 80 c-1 77 -10 240 -20 355 -2 30 -6 80 -9 110
-5 61 -15 216 -20 300 -3 64 -17 521 -19 630 -1 41 0 81 2 87 4 12 219 85 292
100 19 3 62 17 94 30 33 12 61 21 64 18 8 -7 5 -287 -4 -440 -15 -249 -7 -696
13 -728 3 -6 33 -7 67 -3 33 4 88 9 121 12 33 2 70 7 82 9 13 3 25 4 27 3 10
-7 46 37 41 50 -7 19 19 64 50 88 19 14 24 25 20 41 -3 15 2 30 15 43 11 11
19 24 16 28 -2 4 -7 54 -11 112 -4 58 -8 107 -10 110 -13 22 -21 419 -14 703
l3 128 29 15 c16 9 31 13 35 10 3 -3 -1 -6 -8 -6 -7 0 -11 -2 -9 -5 6 -5 78
21 164 60 81 37 144 57 159 52 7 -3 10 -25 8 -63 -4 -96 -8 -727 -4 -770 3
-33 9 -42 35 -54 18 -8 35 -14 39 -13 3 2 48 5 100 8 112 8 199 22 212 35 11
11 12 53 2 194 -7 94 -9 620 -3 759 1 30 8 51 17 57 33 21 344 114 335 100 -2
-4 -36 -16 -75 -26 -38 -10 -68 -20 -65 -22 2 -3 26 1 52 8 26 6 55 14 63 16
91 23 500 184 522 206 18 18 18 90 0 228 -8 61 -22 402 -22 548 0 26 -7 36
-32 52 -33 20 -80 23 -248 13z m-122 -420 c0 -21 2 -68 5 -105 4 -46 2 -69 -6
-75 -22 -17 -158 -74 -170 -71 -23 4 -97 -14 -97 -23 0 -6 -4 -8 -9 -5 -4 3
-39 -3 -76 -14 -37 -11 -71 -17 -76 -15 -8 5 -3 291 6 305 9 15 105 27 280 35
65 3 121 8 124 10 10 11 19 -8 19 -42z"/>
</g>
</svg>
