<?xml version="1.0" encoding="utf-8"?>
<!-- Generator: Adobe Illustrator 21.0.0, SVG Export Plug-In . SVG Version: 6.00 Build 0)  -->
<svg version="1.1" id="Layer_1" xmlns="http://www.w3.org/2000/svg" xmlns:xlink="http://www.w3.org/1999/xlink" x="0px" y="0px"
	 viewBox="0 0 150.6 195.4" style="enable-background:new 0 0 150.6 195.4;" xml:space="preserve">
<path d="M97.5,28c-0.7,18.8-1.4,35.8-2,52.7c0,1,0.6,2.1,0.9,3.2c0.9-0.5,2.1-0.8,2.8-1.5c6.7-6.4,13.4-13,20.1-19.4
	c2.1-2,4.3-3.6,7.6-1.9c0.8,0.4,2.5-0.8,3.8-1.1c2-0.4,4.4-1.2,6.1-0.5c2.8,1.1,1,3.2-0.1,4.9c-0.3,0.6-0.1,1.5-0.1,2.2
	c0.6,0,1.3,0.2,1.9,0c2.1-0.9,4.1-2.1,6.3-2.7c1.9-0.5,3.9-0.3,5.9-0.5c-0.3,1.9,0,4.3-1.1,5.6c-5,6.5-10.3,12.9-15.7,19.2
	c-14.3,16.8-28.6,33.5-43.1,50.2c-2.5,2.9-5.4,5.4-8,8.2c-0.6,0.7-0.9,1.6-1.4,2.4c0.9,0.2,1.8,0.7,2.6,0.6
	c10.3-0.6,20.6-1.5,30.9-1.7c3.6-0.1,7.2,1.8,10.9,2.2c3.1,0.4,6.3,0.3,9.4-0.1c3.7-0.4,6.8-0.2,7.6,4.2c0.8,4.6-1.5,7.4-6.4,8.2
	c-2.6,0.5-5.2,1-7.8,1.6c-0.7,0.2-1.3,0.8-1.9,1.2c0.6,0.4,1.2,1.1,1.9,1.2c1.8,0.4,3.7,0.4,5.4,1.1c1,0.4,1.7,1.7,2.5,2.6
	c-0.9,0.8-1.8,1.7-2.8,2.2c-0.7,0.3-1.6-0.1-2.5,0c-1.1,0.1-2.2,0.5-3.3,0.7c1,0.5,2.1,0.9,3,1.7c3.8,3.3,8.3,4.9,13.2,5.7
	c0.9,0.1,2.2,2.2,2,2.9c-0.4,1.1-1.9,2.3-3,2.5c-3.4,0.6-7,0.6-10.4,1.1c-1.7,0.2-3.2,1.1-4.9,1.5c-1,0.2-2.1,0.3-3.1,0.1
	c-2.7-0.4-5.3-1.6-7.9-1.5c-8.3,0.5-16.6,1.4-24.8,2.3c-17.5,1.8-35,3.8-52.6,5.5c-5.6,0.5-11.3,0.4-16.9,0.1
	c-2-0.1-4.5-1.1-5.7-2.6c-4.1-5.2-7.9-10.7-11.5-16.3c-1.8-2.8-0.3-4.4,2.8-4.5c4-0.1,4.1-1.8,2-4.7c-3.3-4.5-2.2-6.8,3.4-7.4
	c13-1.4,26.1-2.5,39.1-4.1c5.7-0.7,11.3-2.1,17-3.3c0.4-0.1,0.8-0.5,1.2-0.8c-0.5-0.6-0.9-1.3-1.4-1.8
	c-10.3-8.7-21.2-16.7-30.7-26.1C25.7,110.9,13.1,97.8,3.8,82c-0.6-1-1.4-2-1.6-3.1c-0.3-1.3-0.2-2.8-0.2-4.2c1.5,0.2,3,0.4,4.4,0.8
	c0.7,0.2,1.4,0.6,2.1,0.9c-0.1-0.8-0.5-1.7-0.2-2.3c2.6-5.2-1.9-10-0.6-15.2c0.3-1.3-1.3-3.2-2.3-4.6c-1.4-1.8-3.4-3.3-4.6-5.2
	c-0.7-1.1-0.9-3.8-0.3-4.1c1.3-0.8,3.6-1.2,4.7-0.5c2.7,1.6,4.8,4.1,7.4,5.9c1,0.7,3,1.5,3.7,1c3.9-2.7,5.9,0.3,8,2.5
	c5.5,5.8,10.7,11.8,16.3,17.5c5,5.1,10.3,9.9,15.5,14.8c0.6,0.6,1.6,0.8,2.4,1.2c0.1-0.8,0.4-1.7,0.2-2.4c-3-12.9-1.1-25.8-0.2-38.8
	c0.9-13.1,0.6-26.3,0.5-39.4c0-5.1,1.9-8,7.1-5.6c1.4,0.6,3.6,0.1,5.2-0.4c4.1-1.4,5.2-0.7,6,3.6c0.4,2-0.8,5.7,2.8,5.1
	c2.7-0.5,5-2.9,7.4-4.7c1.3-1,2.5-3.3,3.5-3.2c1.3,0.1,3.4,1.9,3.6,3.2C95.8,13,96.7,21.4,97.5,28z M20.5,67.9
	c0.4-0.3,0.7-0.7,1.1-1c-3.7-4.1-7.5-8.2-11.2-12.4c-0.4,0.4-0.8,0.8-1.2,1.1C12.9,59.8,16.7,63.8,20.5,67.9z"/>
</svg>
