<?xml version="1.0" encoding="utf-8"?>
<!-- Generator: Adobe Illustrator 21.0.0, SVG Export Plug-In . SVG Version: 6.00 Build 0)  -->
<svg version="1.1" id="Layer_1" xmlns="http://www.w3.org/2000/svg" xmlns:xlink="http://www.w3.org/1999/xlink" x="0px" y="0px"
	 viewBox="0 0 119.4 188.2" style="enable-background:new 0 0 119.4 188.2;" xml:space="preserve">
<path d="M73.5,131.6c0.5,11,1.1,22.1,1.4,33.1c0.1,2.6-0.4,5.4-1.5,7.8c-0.8,1.8-2.7,4.4-4.2,4.5c-7.5,0.2-12.9,6.8-20.6,6.2
	c-1-0.1-2.2,2-3.3,3.2c-0.5,0.6-0.9,1.2-1.4,1.9c-0.5-0.7-1.2-1.4-1.6-2.2c-2.9-5-3.8-10.5-3.9-16.1c0-1-0.9-2.9-1.4-2.9
	c-5.7,0-4.2-4.2-3.9-7.1c1.4-15.3,2.5-30.6,1.3-46.1c-0.4-4.7-2.2-5.5-6.1-5.2c-5.1,0.3-10.7,1.6-15.2,0c-4.6-1.6-8.1-6.3-12-9.7
	C3.4,95.3,2.5,92,0,89c1-0.7,1.9-1.8,3-2.1c2.5-0.6,2.6-1.6,1-3.4c-0.7-0.7-1.1-1.7-1.5-2.6c-1.4-3.1-0.1-4.2,3-4.3
	c7.6-0.2,15.2-0.7,22.8-1c3-0.1,4.3-1.3,4.3-4.6c0.1-9.8,0.5-19.6,1.1-29.4c0.1-2.1,1.7-4.3,3.1-6.1c3.6-4.8,7.4-9.4,11.3-13.9
	c2.6-3,5.5-5.7,8.1-8.7c1.7-1.9,3-4,4.7-5.9c0.8-1,1.8-2.2,2.9-2.4C73,2.9,82.1,0.9,91.4,0.1C96.8-0.4,102.5,1,108,2
	c2.6,0.5,4.7,1.9,3.1,5.4c-0.7,1.5-0.3,3.4-0.3,5.2c-0.1,1.1,0.3,2.7-0.2,3.1c-4.6,3.4-0.6,2.7,1.4,3c0.7,0.1,1.4-0.1,2,0.2
	c1.9,0.8,3.7,1.6,5.5,2.5c-1.8,0.7-3.7,1.2-5.4,2.2c-2.1,1.3-5.6,2.9-5.7,4.5c-0.3,3.8-2.9,4.2-5.1,5.1c-1.5,0.6-3.3,1-4.9,0.7
	c-12.4-2.1-16.8,8.7-24.1,14.8C74,55.1,73.7,61.5,73.7,68c0,0.5,2.3,1.5,3.5,1.5c8.3-0.1,16.5-0.5,24.8-0.6c1.4,0,2.9,0.7,4.1,1.5
	c1,0.6,2.4,1.8,2.4,2.7c0,0.9-1.5,1.8-2.4,2.7c-1,0.9-2,1.6-3.1,2.4c1.3,0.4,2.7,0.8,4,1.3c1.3,0.4,2.6,0.9,3.9,1.4
	c-1.1,1-2.2,2.3-3.5,3c-2.1,1.2-4.4,2.1-6.7,3c-2.5,1-4,2.3-2.7,5.3c0.3,0.7-0.5,2.1-1,2.9c-1,1.6-2,3.3-3.4,4.5
	c-1.5,1.3-3.5,2.5-5.4,2.8c-3.8,0.6-7.7,0.2-11.4,0.9c-1.4,0.3-3.5,2.3-3.6,3.6c-0.6,8.2-0.7,16.5-1,24.8
	C72.6,131.6,73,131.6,73.5,131.6z"/>
</svg>
