<?xml version="1.0" encoding="utf-8"?>
<!-- Generator: Adobe Illustrator 21.0.0, SVG Export Plug-In . SVG Version: 6.00 Build 0)  -->
<svg version="1.1" id="Layer_1" xmlns="http://www.w3.org/2000/svg" xmlns:xlink="http://www.w3.org/1999/xlink" x="0px" y="0px"
	 viewBox="0 0 187.9 181.2" style="enable-background:new 0 0 187.9 181.2;" xml:space="preserve">
<path d="M187.3,102.4c0,8.8,0.6,17.7-0.2,26.4c-1,11.3-6,20.9-14,29.1c-5.1,5.2-9.7,11.1-16.9,13.7c-3.5,1.3-7.4,1.9-11,3
	c-3.5,1.1-6.9,2.7-10.5,3.7c-3.7,1-7.4,1.9-11.2,2.1c-10.5,0.5-21,0.8-31.5,0.8c-6.1,0-12.3-0.6-18.4-1.1c-4.4-0.3-8.6-1.8-13.2,0
	c-2,0.8-5.2-0.7-7.5-1.8c-5.6-2.5-11-5.4-16.5-8.3c-1.4-0.8-2.7-1.9-4-2.9c-3.6-2.9-7.2-5.7-10.6-8.7c-1.7-1.5-3.3-3.4-4.4-5.3
	c-2.4-4.2-3.9-8.6-7.4-12.5c-3.3-3.8-3.3-10.6-4.5-16.1c-3.5-15.5-6-31.1-5.6-47C0.5,60.7,2.5,44,10.2,28.7c1.5-2.9,3.6-5.7,6-7.8
	c4.8-4.3,9.6-9.1,15.3-11.9C38,5.9,45.3,3.9,52.4,3.1c20.9-2.3,41.8-3.5,62.8-1.8c3.5,0.3,7.3-1.9,10.7,0.7c0.1,0.1,0.4,0.1,0.5,0
	c6.4-4.9,11.5,0.3,17.1,2.1c0.7,0.2,1.5,0.3,2.3,0.4c-0.2-0.6-0.4-1.1-0.5-1.7c-0.1-0.7,0-1.4,0-2.1c0.6,0.2,1.3,0.3,1.9,0.5
	c14,7.4,23.5,19.3,31.4,32.4c3.4,5.6,4.4,12.9,5.5,19.5C186.9,69.4,189.1,85.8,187.3,102.4z M28.3,94.9c0.4,0,0.8,0,1.3,0
	c-1,12.8,0,24.9,6.7,36.6c5.3,9.4,12.9,15.7,22.1,19.2c7.4,2.8,16,2.9,24,3.1c7.4,0.2,15-0.6,22.4-1.6c6.4-0.9,12.6-2.6,18.9-3.9
	c6.7-1.5,13.5-2.8,20.2-4.5c3-0.8,7.3-1.6,8.3-3.7c2.9-6.3,10.3-11.4,6.4-19.9c-0.3-0.6,0.3-1.6,0.4-2.4c0.7-6.1,1.5-12.2,2-18.3
	c0.2-1.9-0.5-3.9-0.7-5.8c-0.3-1.8-0.9-3.7-0.8-5.5c0.3-6.4,1.4-12.8,1.4-19.3c0-12.3-4.1-23.3-11.8-32.9c-0.4-0.5-0.9-0.8-1.4-1.2
	c-2.3-1.4-5-2.4-6.8-4.3c-2.4-2.5-4.9-3.6-8.4-3.2c-7.1,0.8-14.2,1.8-21.3,1.8c-7.6,0.1-15.3-0.8-22.9-1.3c-4.1-0.3-8.5,0-12.4-1.2
	C65.8,23.4,57,25.4,49,31.4c-4.4,3.3-10.3,5.3-11.6,11.6c-6,1.2-4,6-4.5,9.7c-0.1,0.6-0.4,1.3-0.8,1.8c-4.1,4.8-3.6,10.7-3.7,16.4
	C28.1,78.9,28.3,86.9,28.3,94.9z"/>
<path d="M134,88.3c0.6,12.4-4.4,22.5-12.6,30.8c-4.3,4.4-9.8,7.4-16.7,8.5c-13.8,2.3-26-1.6-38-7.2c-3-1.4-4.9-5.1-7.2-7.8
	c-2-2.3-4-4.6-5.8-7c-0.9-1.1-1.6-2.5-1.9-3.9c-3.9-16.8-0.2-32.3,8.8-46.7c1.5-2.4,3.2-5.4,7.1-2.7c0.7,0.5,2.5-0.3,3.6-0.9
	c6.6-3.7,13.9-4.3,21.2-4.4c4.3-0.1,8.6,0.1,12.9,0.2c0.8,0,1.7,0,2.5,0.3c9.1,3.8,17.8,8.6,21.4,18.2
	C131.9,72.8,132.5,80.7,134,88.3z M85.2,61.5c-0.2-0.5-0.4-0.9-0.7-1.4c-3.9,2.3-8.1,4.2-11.7,7c-2.1,1.6-3.4,4.3-4.6,6.7
	c-4.1,7.8,1.5,20.5,8.5,26.5c0.9,0.8,1.9,1.5,2.4,2.5c2.6,5.4,7.3,5.4,12.3,5.3c1.4,0,2.9,0.6,4.3,1c2.9,0.8,5.8,1.9,8.7,2
	c0.5,0,1.2-3.9,1.9-5.9c0.3-0.9,0.8-1.6,1.3-2.4c0.6,0.7,1.1,1.4,1.7,2.1c0.4,0.5,0.8,1,1.1,1.5c0.5-0.6,1.2-1.1,1.5-1.7
	c1.5-4.4,2.7-8.8,4.3-13.2c2.9-8.2-2.1-14.8-4.8-21.7c-0.6-1.5-3.8-2-5.8-3c-3.3-1.7-6.4-4.2-9.9-5.2C92.3,60.8,88.6,61.5,85.2,61.5
	z"/>
<path d="M129.1,46.7c-0.1-5.6,3.8-9.1,10.5-9.3c3.7-0.1,7.3,5.4,7.3,11c0,3-5.5,7.5-9.3,7.7C133.3,56.3,129.1,51.7,129.1,46.7z"/>
</svg>
