<?xml version="1.0" encoding="utf-8"?>
<!-- Generator: Adobe Illustrator 21.0.0, SVG Export Plug-In . SVG Version: 6.00 Build 0)  -->
<svg version="1.1" id="Layer_1" xmlns="http://www.w3.org/2000/svg" xmlns:xlink="http://www.w3.org/1999/xlink" x="0px" y="0px"
	 viewBox="0 0 521.7 521.9" style="enable-background:new 0 0 521.7 521.9;" xml:space="preserve">
<path class="st0" d="M261,51.1c68.4,0,76.5,0.3,103.4,1.5c25,1.1,38.5,5.3,47.5,8.8c11.9,4.6,20.5,10.2,29.4,19.1
	c9,9,14.5,17.5,19.2,29.4c3.5,9,7.7,22.6,8.8,47.5c1.2,27,1.5,35.1,1.5,103.4s-0.3,76.5-1.5,103.4c-1.1,25-5.3,38.5-8.8,47.5
	c-4.6,11.9-10.2,20.5-19.1,29.4c-9,9-17.5,14.5-29.4,19.2c-9,3.5-22.6,7.7-47.5,8.8c-27,1.2-35.1,1.5-103.4,1.5s-76.5-0.3-103.4-1.5
	c-25-1.1-38.5-5.3-47.5-8.8c-11.9-4.6-20.5-10.2-29.4-19.1c-9-9-14.5-17.5-19.2-29.4c-3.5-9-7.7-22.6-8.8-47.5
	c-1.2-27-1.5-35.1-1.5-103.4s0.3-76.5,1.5-103.4c1.1-25,5.3-38.5,8.8-47.5c4.6-11.9,10.2-20.5,19.1-29.4c9-9,17.5-14.5,29.4-19.2
	c9-3.5,22.6-7.7,47.5-8.8C184.5,51.4,192.6,51.1,261,51.1z M261,5c-69.5,0-78.2,0.3-105.5,1.5c-27.2,1.2-45.9,5.6-62.1,11.9
	C76.5,25,62.2,33.7,48,48C33.7,62.2,25,76.5,18.4,93.3c-6.3,16.3-10.7,34.9-11.9,62.1C5.3,182.8,5,191.5,5,261s0.3,78.2,1.5,105.5
	c1.2,27.2,5.6,45.9,11.9,62.1C25,445.5,33.7,459.8,48,474c14.2,14.2,28.5,23,45.3,29.5c16.3,6.3,34.9,10.7,62.1,11.9
	c27.3,1.2,36,1.5,105.5,1.5s78.2-0.3,105.5-1.5c27.2-1.2,45.9-5.6,62.1-11.9c16.8-6.5,31.1-15.3,45.3-29.5s23-28.5,29.5-45.3
	c6.3-16.3,10.7-34.9,11.9-62.1c1.2-27.3,1.5-36,1.5-105.5s-0.3-78.2-1.5-105.5c-1.2-27.2-5.6-45.9-11.9-62.1
	c-6.3-17-15-31.3-29.3-45.5c-14.2-14.2-28.5-23-45.3-29.5c-16.3-6.3-34.9-10.7-62.1-11.9C339.2,5.3,330.5,5,261,5C261,5,261,5,261,5
	z"/>
<path class="st1" d="M261,129.5c-72.6,0-131.5,58.9-131.5,131.5S188.4,392.5,261,392.5S392.5,333.6,392.5,261S333.6,129.5,261,129.5
	z M261,346.3c-47.1,0-85.3-38.2-85.3-85.3s38.2-85.3,85.3-85.3s85.3,38.2,85.3,85.3S308.1,346.3,261,346.3L261,346.3z"/>
<path class="st1" d="M428.4,124.3c0,17-13.7,30.7-30.7,30.7S367,141.3,367,124.3s13.7-30.7,30.7-30.7S428.4,107.3,428.4,124.3z"/>
</svg>
