<?xml version="1.0" encoding="utf-8"?>
<!-- Generator: Adobe Illustrator 21.0.0, SVG Export Plug-In . SVG Version: 6.00 Build 0)  -->
<svg version="1.1" id="Layer_1" xmlns="http://www.w3.org/2000/svg" xmlns:xlink="http://www.w3.org/1999/xlink" x="0px" y="0px"
	 viewBox="0 0 221.5 121" style="enable-background:new 0 0 221.5 121;" xml:space="preserve">
<g>
	<path class="st0" d="M22.1,51.7v-1.9h4.6V19.9h-4.6V18h11.2v1.9h-4.6v13.9h21.4V19.9h-4.6V18h11.2v1.9h-4.6v29.9h4.6v1.9H45.5v-1.9
		h4.6v-14H28.7v14h4.6v1.9H22.1z"/>
	<path class="st0" d="M59.1,51.7v-1.9h4.6V19.9h-4.6V18h23.3v6.3h-2v-4.4H65.7v13.8h13.5v1.9H65.7v14.1h15.6v-4.6h2v6.6H59.1z"/>
	<path class="st0" d="M83.9,51.7v-1.9h3.6L99.5,18h2.2l11.9,31.8h3.6v1.9h-9.9v-1.9h4.1l-3.7-9.7H93.4l-3.6,9.7h4.1v1.9H83.9z
		 M94.1,38.1H107l-5.9-15.7c0-0.1-0.1-0.3-0.2-0.6c-0.1-0.3-0.2-0.5-0.2-0.6c-0.1-0.3-0.1-0.4-0.1-0.6h-0.1c0,0.1,0,0.3-0.1,0.6
		c0,0.1-0.1,0.3-0.2,0.6c-0.1,0.3-0.1,0.5-0.2,0.7L94.1,38.1z"/>
	<path class="st0" d="M117.5,51.7v-1.9h4.6V19.9h-4.6V18h14.2c2.3,0,4.2,0.3,5.8,0.8c3.5,1.3,5.2,4.1,5.2,8.2c0,2.6-0.7,4.8-2.2,6.6
		c-1.4,1.7-3.4,2.8-5.9,3.1v0.1l0.3,0.3c0.3,0.3,0.5,0.6,0.7,0.9l6.3,10.8c0.3,0.5,0.6,0.8,0.9,0.9c0.3,0.1,0.8,0.2,1.5,0.2h0.9v1.9
		h-0.9c-1.4,0-2.4-0.1-2.9-0.4c-0.5-0.3-1-1-1.7-2.1l-6-10.2c-0.5-0.9-1-1.5-1.5-1.8c-0.5-0.3-1.3-0.4-2.5-0.4h-5.6v13h4.6v1.9
		H117.5z M124.1,34.9h8.9c2.2,0,4-0.7,5.4-2.1c1.4-1.4,2.1-3.3,2.1-5.7c0-3.3-1.4-5.4-4.1-6.4c-1.1-0.5-2.7-0.7-4.8-0.7h-7.5V34.9z"
		/>
	<path class="st0" d="M147.2,45.9V43h2.1v2.5c0,1.5,0.8,2.7,2.4,3.6c1.6,0.9,3.5,1.4,5.7,1.4c2.5,0,4.5-0.6,6-1.8
		c1.5-1.2,2.3-2.9,2.3-5.1c0-1.2-0.2-2.2-0.7-3.1c-0.4-0.9-1.1-1.7-2-2.3c-0.9-0.7-1.8-1.2-2.6-1.6c-0.8-0.4-2-0.8-3.3-1.3
		c-3-1.2-5-2.1-6-2.9c-2-1.5-3-3.6-3-6.2c0-2.7,0.9-4.8,2.8-6.3c1.8-1.5,4.2-2.3,7-2.3c2.5,0,4.7,0.5,6.5,1.4
		c1.9,0.9,2.8,2.1,2.8,3.6v3.2h-2.1V23c0-1.1-0.7-2-2.2-2.6c-1.5-0.7-3.1-1-5-1c-2.2,0-4,0.6-5.5,1.7c-1.4,1.1-2.1,2.7-2.1,4.6
		c0,0.9,0.2,1.6,0.5,2.4c0.3,0.7,0.7,1.3,1.1,1.7c0.4,0.5,1,0.9,1.9,1.4c0.9,0.5,1.6,0.8,2.1,1.1c0.6,0.2,1.4,0.6,2.6,1
		c3.2,1.3,5.3,2.3,6.4,3.1c2.1,1.6,3.2,3.9,3.2,6.7c0,2.7-1,4.9-2.9,6.7c-1.9,1.7-4.5,2.6-7.5,2.6c-2.6,0-4.9-0.6-7-1.7
		C148.3,49.5,147.2,47.9,147.2,45.9z"/>
	<path class="st0" d="M170.6,51.7v-1.9h4.6V19.9h-4.6V18h23.3v6.3h-2v-4.4h-14.6v13.8h13.5v1.9h-13.5v14.1h15.6v-4.6h2v6.6H170.6z"
		/>
</g>
<g>
	<path class="st0" d="M22.2,102.7v-2H27V69h-4.8v-2H38c2.7,0,4.7,0.4,6.2,1.1c1.7,0.8,3,2,4,3.6c1,1.6,1.5,3.5,1.5,5.7
		c0,2.4-0.6,4.4-1.7,6.1c-1.2,1.7-2.7,2.9-4.7,3.6c-1.3,0.5-3.1,0.7-5.2,0.7h-8.8v12.8h4.9v2H22.2z M29.2,85.9h8.7
		c1.9,0,3.4-0.2,4.7-0.6c3.2-1.3,4.8-3.9,4.8-7.8c0-3.6-1.4-6.1-4.2-7.4C41.7,69.3,40,69,37.9,69h-8.7V85.9z"/>
	<path class="st0" d="M53.4,102.7v-2h4.8V69h-4.8v-2h11.9v2h-4.9v31.6h4.9v2H53.4z"/>
	<path class="st0" d="M69.8,102.7v-2h4.8V69h-4.8v-2h11.9v2h-4.9v31.6h15.9v-6.1h2.1v8.2H69.8z"/>
	<path class="st0" d="M98.4,102.7v-2h4.8V69h-4.8v-2H123v6.7h-2.1V69h-15.5v14.6h14.3v2h-14.3v14.9h16.5v-4.9h2.1v7H98.4z"/>
	<path class="st0" d="M128,69v-2h11.9v2H135v20.6c0,3,0.6,5.4,1.7,7.2c1.9,3,5,4.4,9.4,4.5c4.5,0,7.6-1.6,9.5-4.7
		c1.1-1.9,1.7-4.3,1.7-7.1V69h-4.8v-2h11.9v2h-4.9v20.7c0,3.3-0.7,6-2.1,8.2c-2.3,3.6-6.1,5.4-11.2,5.4c-2.5,0-4.8-0.5-6.8-1.4
		c-2-1-3.5-2.3-4.7-4.1c-1.3-2.1-1.9-4.8-1.9-8.1V69H128z"/>
	<path class="st0" d="M168,102.7v-2h4.8V69H168v-2h15.8c2.7,0,4.7,0.4,6.2,1.1c1.7,0.8,3,2,4,3.6c1,1.6,1.5,3.5,1.5,5.7
		c0,2.4-0.6,4.4-1.7,6.1c-1.2,1.7-2.7,2.9-4.7,3.6c-1.3,0.5-3.1,0.7-5.2,0.7H175v12.8h4.9v2H168z M175,85.9h8.7
		c1.9,0,3.4-0.2,4.7-0.6c3.2-1.3,4.8-3.9,4.8-7.8c0-3.6-1.4-6.1-4.2-7.4c-1.4-0.6-3.1-0.9-5.2-0.9H175V85.9z"/>
</g>
<g>
	<path class="st0" d="M221.5,121H0V0h221.5V121z M1,120h219.5V1H1V120z"/>
</g>
</svg>
