<?xml version="1.0" encoding="utf-8"?>
<!-- Generator: Adobe Illustrator 21.0.0, SVG Export Plug-In . SVG Version: 6.00 Build 0)  -->
<svg version="1.1" id="Layer_1" xmlns="http://www.w3.org/2000/svg" xmlns:xlink="http://www.w3.org/1999/xlink" x="0px" y="0px"
	 viewBox="0 0 565.5 339.3" style="enable-background:new 0 0 565.5 339.3;" xml:space="preserve">
<rect x="102.8" y="195.4" width="30.8" height="113.1"/>
<rect x="154.2" y="154.2" width="30.8" height="154.2"/>
<rect x="102.8" y="154.2" width="30.8" height="20.6"/>
<polygon points="0,30.8 0,174.8 30.8,174.8 30.8,92.5 51.4,92.5 51.4,174.8 82.3,174.8 82.3,61.7 30.8,61.7 30.8,30.8 "/>
<path d="M30.8,226.2h20.6v51.4H30.8V226.2z M0,195.4v144h30.8v-30.8h51.4V195.4H0z"/>
<path d="M442.1,226.2h20.6v51.4h-20.6V226.2z M411.3,195.4v144h30.8v-30.8h51.4V195.4H411.3z"/>
<polygon points="359.9,195.4 359.9,277.6 339.3,277.6 339.3,195.4 308.5,195.4 308.5,308.5 390.7,308.5 390.7,195.4 "/>
<polygon points="359.9,61.7 308.5,61.7 308.5,174.8 339.3,174.8 339.3,92.5 359.9,92.5 "/>
<path d="M287.9,257.1v-82.3h-82.3v133.7h82.3v-30.8h-51.4v-20.6H287.9z M257.1,226.2h-20.6v-20.6h20.6V226.2z"/>
<path d="M133.7,30.8h20.6v20.6h-20.6V30.8z M102.8,0v133.7h82.3v-30.8h-51.4V82.3h51.4V0H102.8z"/>
<path d="M514.1,72h20.6v20.6h-20.6V72z M483.3,41.1v133.7h82.3v-30.8h-51.4v-20.6h51.4V41.1H483.3z"/>
<path d="M205.6,20.6v30.8h51.4V72h-51.4v82.3h82.3V20.6H205.6z M236.5,102.8h20.6v20.6h-20.6V102.8z"/>
<polygon points="462.7,72 462.7,41.1 380.4,41.1 380.4,123.4 431.8,123.4 431.8,143.9 380.4,143.9 380.4,174.8 462.7,174.8 
	462.7,92.5 411.3,92.5 411.3,72 "/>
</svg>
